<?xml version="1.0" encoding="UTF-8"?>
<svg version="1.1" xmlns="http://www.w3.org/2000/svg" width="500" height="500">
<path d="M0 0 C165 0 330 0 500 0 C500 165 500 330 500 500 C335 500 170 500 0 500 C0 335 0 170 0 0 Z " fill="#272727" transform="translate(0,0)"/>
<path d="M0 0 C6.6 0 13.2 0 20 0 C21 1 21 1 21.12025452 3.47401428 C21.11803391 4.57321701 21.11581329 5.67241974 21.11352539 6.80493164 C21.11340454 8.06358032 21.11328369 9.322229 21.11315918 10.61901855 C21.10812272 11.96606495 21.10295608 13.31311087 21.09765625 14.66015625 C21.09664917 15.87795776 21.09564209 17.09575928 21.09460449 18.35046387 C21.08935295 22.92115209 21.07539185 27.49182694 21.0625 32.0625 C21.041875 42.271875 21.02125 52.48125 21 63 C-15.63 63 -52.26 63 -90 63 C-90 42.54 -90 22.08 -90 1 C-83.4 1 -76.8 1 -70 1 C-70 20.47 -70 39.94 -70 60 C-46.9 60 -23.8 60 0 60 C0 40.2 0 20.4 0 0 Z " fill="#E5DFD4" transform="translate(357,177)"/>
<path d="M0 0 C6.93 0 13.86 0 21 0 C24.51103497 7.59312544 27.77677954 15.23741913 30.86328125 23.01171875 C31.51855049 24.65307549 31.51855049 24.65307549 32.1870575 26.32759094 C33.56466395 29.77991948 34.93864263 33.23367805 36.3125 36.6875 C37.25301445 39.04631997 38.19376745 41.40504483 39.13476562 43.76367188 C41.42593362 49.50801901 43.71413503 55.25354071 46 61 C44.515 61.495 44.515 61.495 43 62 C39.40327862 55.26151245 36.67864271 48.24393089 33.96817017 41.11480713 C32.65210958 37.65500983 31.32190983 34.20065857 29.9921875 30.74609375 C29.73297012 30.07199463 29.47375275 29.39789551 29.2066803 28.70336914 C27.13276343 23.31994895 25.00797571 17.95994029 22.8125 12.625 C22.53365967 11.9431665 22.25481934 11.26133301 21.9675293 10.55883789 C20.84665878 7.55531006 20.84665878 7.55531006 19 5 C18.5899044 6.02690445 18.5899044 6.02690445 18.17152405 7.07455444 C15.59737052 13.51994851 13.02239171 19.96501231 10.44648075 26.40970421 C9.12214748 29.7231489 7.79813591 33.0367214 6.47485352 36.35058594 C4.95423909 40.15858375 3.43223647 43.96602534 1.91015625 47.7734375 C1.43409439 48.96617279 0.95803253 50.15890808 0.46754456 51.38778687 C-0.19302696 53.03927231 -0.19302696 53.03927231 -0.86694336 54.72412109 C-1.25555038 55.69674896 -1.64415741 56.66937683 -2.04454041 57.67147827 C-3 60 -3 60 -4 62 C-10.6 62 -17.2 62 -24 62 C-21.83219563 54.32739914 -19.1287465 47.0251394 -16.11328125 39.6484375 C-15.65140915 38.50839264 -15.18953705 37.36834778 -14.71366882 36.1937561 C-13.2508296 32.58577533 -11.78177189 28.98036532 -10.3125 25.375 C-9.31353107 22.9157378 -8.3159892 20.45589983 -7.31835938 17.99609375 C-4.88363493 11.99546358 -2.44333374 5.9971295 0 0 Z " fill="#E7E1D7" transform="translate(171,178)"/>
<path d="M0 0 C6.6 0 13.2 0 20 0 C19.06992724 4.6503638 17.64607165 8.71391865 15.875 13.07421875 C15.41456299 14.22178398 15.41456299 14.22178398 14.94482422 15.39253235 C13.96724841 17.82583321 12.98360766 20.25663205 12 22.6875 C11.33816422 24.33383269 10.67670181 25.98031553 10.015625 27.62695312 C5.19683189 39.60633622 5.19683189 39.60633622 4 42 C-2.6 42 -9.2 42 -16 42 C-13.49080308 32.81470876 -9.93674117 24.16098008 -6.3125 15.375 C-5.69944249 13.8790813 -5.08680895 12.38298876 -4.47460938 10.88671875 C-2.98872276 7.2554451 -1.49421649 3.62789795 0 0 Z " fill="#E8E2D8" transform="translate(132,276)"/>
<path d="M0 0 C6.6 0 13.2 0 20 0 C20 13.86 20 27.72 20 42 C13.4 42 6.8 42 0 42 C0 28.14 0 14.28 0 0 Z " fill="#E8E2D7" transform="translate(357,276)"/>
<path d="M0 0 C6.6 0 13.2 0 20 0 C20 13.86 20 27.72 20 42 C13.4 42 6.8 42 0 42 C0 28.14 0 14.28 0 0 Z " fill="#EBE5DA" transform="translate(267,276)"/>
<path d="M0 0 C1.8203125 0.11938477 1.8203125 0.11938477 4 1 C5.4921875 3.61694336 5.4921875 3.61694336 6.875 7.08984375 C7.12620605 7.70839737 7.37741211 8.32695099 7.63623047 8.96424866 C8.43870394 10.9498437 9.21951674 12.94317256 10 14.9375 C10.52463384 16.24600804 11.05066151 17.55395816 11.578125 18.86132812 C12.59847552 21.39706058 13.60871057 23.93641657 14.609375 26.47998047 C16.1512709 30.38290448 17.73617 34.26721105 19.3359375 38.14672852 C20 40 20 40 20 42 C16.37 42 12.74 42 9 42 C8.68546875 40.47632813 8.3709375 38.95265625 8.046875 37.3828125 C5.46230074 24.89898421 2.81042955 12.43497322 0 0 Z " fill="#E0DAD0" transform="translate(228,276)"/>
<path d="M0 0 C2.9375 2.0625 2.9375 2.0625 5 5 C5 8.51955419 4.63108355 10.84920059 2.9375 13.9375 C-0.28767724 15.70614558 -3.48550634 15.73161638 -7 15 C-10.131109 12.71689968 -11.65585014 11.25145403 -12.6875 7.5 C-11.83330507 4.39383661 -10.28137885 2.85928667 -7.71484375 0.95703125 C-4.90240725 -0.61255176 -3.12707223 -0.66533452 0 0 Z " fill="#555351" transform="translate(299,247)"/>
<path d="M0 0 C1.5500667 2.32510005 2.57537598 4.16598137 3.61645508 6.69848633 C4.07251884 7.8015789 4.07251884 7.8015789 4.53779602 8.92695618 C5.02375496 10.11746834 5.02375496 10.11746834 5.51953125 11.33203125 C5.85997971 12.16022873 6.20042816 12.98842621 6.55119324 13.84172058 C7.27313129 15.60044209 7.99340948 17.35984573 8.7121582 19.11987305 C9.79355932 21.76615059 10.88170322 24.4095764 11.97070312 27.05273438 C15.89839348 36.6218503 19.64760819 46.2129658 23 56 C21.14411926 55.78900146 21.14411926 55.78900146 19 55 C17.75297546 53.01519775 17.75297546 53.01519775 16.6940918 50.37597656 C16.29075119 49.39115295 15.88741058 48.40632935 15.47184753 47.3916626 C15.05188004 46.31882019 14.63191254 45.24597778 14.19921875 44.140625 C13.75858597 43.04409607 13.31795319 41.94756714 12.8639679 40.81781006 C11.93456275 38.49384812 11.01291116 36.16677278 10.09838867 33.83691406 C8.6955353 30.27042821 7.26287947 26.71702486 5.82617188 23.1640625 C4.92787215 20.90697165 4.03132899 18.64918074 3.13671875 16.390625 C2.49158577 14.79350677 2.49158577 14.79350677 1.8334198 13.16412354 C1.44584 12.16669128 1.05826019 11.16925903 0.65893555 10.14160156 C0.3134819 9.2674762 -0.03197174 8.39335083 -0.38789368 7.49273682 C-1.08858216 4.63925872 -0.77752257 2.80602261 0 0 Z " fill="#D7D1C7" transform="translate(194,184)"/>
<path d="M0 0 C8.06830986 -0.36126761 8.06830986 -0.36126761 12.0625 1.1875 C14 3 14 3 14.5 5.5 C14 8 14 8 12.875 9.8125 C10.15523346 11.53501881 8.15413751 11.32855599 5 11 C4.01 10.34 3.02 9.68 2 9 C1.67 10.98 1.34 12.96 1 15 C0.67 15 0.34 15 0 15 C0 10.05 0 5.1 0 0 Z " fill="#6A6864" transform="translate(248,247)"/>
<path d="M0 0 C8.06830986 -0.36126761 8.06830986 -0.36126761 12.0625 1.1875 C14 3 14 3 14.5 5.5 C14 8 14 8 12.875 9.8125 C10.15523346 11.53501881 8.15413751 11.32855599 5 11 C4.01 10.34 3.02 9.68 2 9 C1.67 10.98 1.34 12.96 1 15 C0.67 15 0.34 15 0 15 C0 10.05 0 5.1 0 0 Z " fill="#6A6864" transform="translate(178,247)"/>
<path d="M0 0 C10.625 -0.25 10.625 -0.25 14 2 C13.125 6.75 13.125 6.75 12 9 C12.27942455 10.67654729 12.60828247 12.34608154 13 14 C12.29875 13.195625 11.5975 12.39125 10.875 11.5625 C7.73708407 8.76566189 6.11241237 8.28691249 2 8 C2 10.31 2 12.62 2 15 C1.34 15 0.68 15 0 15 C0 10.05 0 5.1 0 0 Z " fill="#A29E97" transform="translate(267,247)"/>
<path d="M0 0 C10.49996837 -0.37058712 10.49996837 -0.37058712 12.87109375 1.38671875 C14 3 14 3 13.75 5 C13.5025 5.66 13.255 6.32 13 7 C11.96651304 10.10046087 11.82244087 11.05610218 13 14 C13.99 14.33 14.98 14.66 16 15 C13.625 14.75 13.625 14.75 11 14 C10.5978125 13.0409375 10.5978125 13.0409375 10.1875 12.0625 C9.20345492 9.84661159 9.20345492 9.84661159 7.10546875 9.29296875 C5.08420475 8.80092725 3.04238834 8.39530097 1 8 C1 10.31 1 12.62 1 15 C0.67 15 0.34 15 0 15 C0 10.05 0 5.1 0 0 Z " fill="#AEAAA2" transform="translate(348,247)"/>
<path d="M0 0 C0.99 0 1.98 0 3 0 C5.31 4.62 7.62 9.24 10 14 C9.34 14 8.68 14 8 14 C7.67 12.68 7.34 11.36 7 10 C3.37 10 -0.26 10 -4 10 C-4.33 11.32 -4.66 12.64 -5 14 C-5.66 13.67 -6.32 13.34 -7 13 C-3.535 6.565 -3.535 6.565 0 0 Z " fill="#BCB7AF" transform="translate(224,248)"/>
<path d="M0 0 C3.93345152 1.31115051 4.32374076 2.84212778 6.25 6.4375 C7.06210938 7.92056641 7.06210938 7.92056641 7.890625 9.43359375 C8.25671875 10.28050781 8.6228125 11.12742187 9 12 C8.67 12.66 8.34 13.32 8 14 C7.34 13.01 6.68 12.02 6 11 C3.6712213 10.52175649 3.6712213 10.52175649 1.0625 10.625 C0.18722656 10.61726563 -0.68804687 10.60953125 -1.58984375 10.6015625 C-4.38440081 11.06354762 -5.25774945 11.82649931 -7 14 C-5.53967505 8.68972746 -3.01679014 4.53669968 0 0 Z " fill="#BAB5AD" transform="translate(145,248)"/>
<path d="M0 0 C0.66 0 1.32 0 2 0 C2 2.31 2 4.62 2 7 C5.96 7 9.92 7 14 7 C14 5.02 14 3.04 14 1 C14.33 1 14.66 1 15 1 C15 5.62 15 10.24 15 15 C14.67 15 14.34 15 14 15 C14 12.69 14 10.38 14 8 C10.04 8 6.08 8 2 8 C2 10.31 2 12.62 2 15 C1.34 15 0.68 15 0 15 C0 10.05 0 5.1 0 0 Z " fill="#ACA8A0" transform="translate(318,247)"/>
<path d="M0 0 C0.66 0 1.32 0 2 0 C2 2.31 2 4.62 2 7 C5.96 7 9.92 7 14 7 C14 5.02 14 3.04 14 1 C14.33 1 14.66 1 15 1 C15 5.62 15 10.24 15 15 C14.67 15 14.34 15 14 15 C14 12.69 14 10.38 14 8 C10.04 8 6.08 8 2 8 C2 10.31 2 12.62 2 15 C1.34 15 0.68 15 0 15 C0 10.05 0 5.1 0 0 Z " fill="#ACA8A0" transform="translate(197,247)"/>
<path d="M0 0 C3.63 0 7.26 0 11 0 C10.67 1.65 10.34 3.3 10 5 C6.7 5 3.4 5 0 5 C0 3.35 0 1.7 0 0 Z " fill="#2B2B2B" transform="translate(349,249)"/>
<path d="M0 0 C3.3 0 6.6 0 10 0 C10.33 1.32 10.66 2.64 11 4 C8.59454362 5.20272819 7.05003047 5.10071472 4.375 5.0625 C3.14910156 5.04896484 3.14910156 5.04896484 1.8984375 5.03515625 C0.95871094 5.01775391 0.95871094 5.01775391 0 5 C0 3.35 0 1.7 0 0 Z " fill="#292929" transform="translate(269,249)"/>
<path d="M0 0 C0.99 0 1.98 0 3 0 C4.65 4.62 6.3 9.24 8 14 C6.68 13.67 5.36 13.34 4 13 C2.734375 10.8203125 2.734375 10.8203125 1.75 8.125 C1.41484375 7.24070313 1.0796875 6.35640625 0.734375 5.4453125 C0 3 0 3 0 0 Z " fill="#CFCAC0" transform="translate(209,226)"/>
<path d="M0 0 C2.25245881 2.68841859 3.88213958 4.64641875 5 8 C2.03 8 -0.94 8 -4 8 C-2.68 5.36 -1.36 2.72 0 0 Z " fill="#2E2D2D" transform="translate(225,249)"/>
<path d="M0 0 C0.66 0 1.32 0 2 0 C5 4.38461538 5 4.38461538 5 7 C2.36 7 -0.28 7 -3 7 C-1.125 2.25 -1.125 2.25 0 0 Z " fill="#2C2C2C" transform="translate(145,250)"/>
</svg>
